<svg height="512.001pt" viewBox="0 0 512.001 512.001" width="512.001pt" xmlns="http://www.w3.org/2000/svg"><path d="m456.835938 0h-401.667969c-30.421875 0-55.167969 24.746094-55.167969 55.164062v273.136719c0 30.417969 24.746094 55.167969 55.167969 55.167969h137.632812v34.265625h-33.199219c-25.988281 0-47.132812 21.144531-47.132812 47.132813 0 25.988281 21.144531 47.132812 47.132812 47.132812h192.800782c25.988281 0 47.132812-21.144531 47.132812-47.132812 0-25.988282-21.144531-47.132813-47.132812-47.132813h-33.203125v-34.265625h137.636719c30.417968 0 55.164062-24.75 55.164062-55.167969v-273.136719c0-30.417968-24.746094-55.164062-55.164062-55.164062zm-87.304688 464.867188c0 9.445312-7.683594 17.132812-17.132812 17.132812h-192.796876c-9.449218 0-17.136718-7.6875-17.136718-17.132812 0-9.449219 7.6875-17.132813 17.136718-17.132813h192.796876c9.449218 0 17.132812 7.683594 17.132812 17.132813zm-80.332031-47.132813h-66.398438v-34.269531h66.398438zm192.800781-89.433594c0 13.875-11.289062 25.167969-25.164062 25.167969h-152.597657c-.011719 0-.023437-.003906-.039062-.003906h-96.398438c-.015625 0-.027343.003906-.039062.003906h-152.59375c-13.878907 0-25.167969-11.292969-25.167969-25.167969v-273.136719c0-13.875 11.289062-25.164062 25.167969-25.164062h401.667969c13.875 0 25.164062 11.289062 25.164062 25.164062zm0 0"/><path d="m226.199219 139.59375c-1.445313-4.820312-7.394531-7.066406-13.496094-7.066406-5.949219 0-11.890625 2.246094-13.339844 7.066406l-31.007812 101.066406c-.164063.640625-.324219 1.285156-.324219 1.605469 0 5.140625 7.554688 8.675781 13.179688 8.675781 3.53125 0 6.265624-1.125 7.066406-4.175781l6.105468-21.371094h36.796876l6.105468 21.371094c.804688 3.050781 3.53125 4.175781 7.070313 4.175781 5.621093 0 13.175781-3.695312 13.175781-8.675781 0-.480469-.164062-.964844-.324219-1.605469zm-27.476563 69.414062 13.980469-49.328124 13.976563 49.328124zm0 0"/><path d="m306.210938 133.488281h-28.441407c-5.464843 0-9.160156 3.054688-9.160156 6.425781v104.601563c0 3.375 3.695313 6.425781 9.160156 6.425781h28.441407c21.207031 0 37.757812-9.960937 37.757812-36.792968v-43.863282c0-26.835937-16.550781-36.796875-37.757812-36.796875zm16.867187 80.660157c0 12.53125-6.265625 18.476562-16.867187 18.476562h-16.710938v-80.820312h16.710938c10.601562 0 16.867187 5.949218 16.867187 18.480468zm0 0"/></svg>